<svg width="1024px" height="1024px" version="1.1" viewBox="0 0 1024 1024" xmlns="http://www.w3.org/2000/svg" xmlns:xlink="http://www.w3.org/1999/xlink"><g id="a" fill-rule="evenodd"><g transform="matrix(.892 .0821 -.0821 .892 -37.6 -77.7)"><path d="m199 779c52-57.1 23.6-67.2-17.4-70.3 39.2-100 193-299 347-324 148-24.1 290-78.6 289-249 35.4 1 49.2 11.2 52.4 40.2 7.57 117-18.7 260-243 251-208-8.86-281 219-428 353z" fill="#3f6cc0"/><path d="m259 852c-62.6 21.6-76.5-58-62.2-77.8 74.8-104 216-325 366-351 148-24.7 308-78.6 306-249 5.69 25.4 49.7 36.3 78 36.5-7.66 86.2 10.6 254-213 282-100 12.3-319 180-476 359z" fill="#5684c7"/></g><g transform="rotate(5.26 100 81.9)"><path d="m235 790c52-57.1 11.5-102-60.5-88.4 14.3-95.9 170-297 325-322 148-24.1 298-84.7 296-255 46.9 2.74 70 14.1 74.3 51.5 7.57 117-18.7 260-243 251-208-8.86-279 208-391 363z" fill="#3f6cc0"/><path d="m396 864c-93.6 26.9-173-13.3-163-82.3 14.3-95.9 179-333 329-358 148-24.7 308-78.6 306-249 7.83 57 70.4 66 119 76.6-7.66 86.2-41.5 228-266 218-208-8.86-318 229-326 394z" fill="#5684c7"/></g></g><use transform="rotate(-49.7 540 451)" xlink:href="#a"/></svg>
